<svg width="22" height="28" viewBox="0 0 22 28" fill="none" xmlns="http://www.w3.org/2000/svg">
<path d="M10.6175 13.9004L0.434673 24.3047C0.154287 24.5905 4.17135e-05 24.9726 4.17491e-05 25.38C4.17847e-05 25.7877 0.154287 26.1696 0.434673 26.4558L1.32695 27.367C1.60689 27.6537 1.98111 27.8115 2.37989 27.8115C2.77867 27.8115 3.15245 27.6537 3.43261 27.367L15.5569 14.9798C15.8382 14.6926 15.9922 14.3089 15.9911 13.901C15.9922 13.4913 15.8384 13.1081 15.5569 12.8207L3.44389 0.445476C3.16373 0.158776 2.78996 0.000956736 2.39096 0.000956771C1.99217 0.000956805 1.6184 0.158777 1.33801 0.445476L0.445958 1.35667C-0.13451 1.94973 -0.13451 2.91519 0.445958 3.50803L10.6175 13.9004Z" fill="black"/>
<rect x="16.9911" width="4.86685" height="27.8106" rx="2.43342" fill="black"/>
</svg>
