<svg width="22" height="28" viewBox="0 0 22 28" fill="none" xmlns="http://www.w3.org/2000/svg">
<path d="M11.2404 13.9112L21.4233 3.50684C21.7037 3.22105 21.8579 2.83894 21.8579 2.4315C21.8579 2.02384 21.7037 1.64195 21.4233 1.35571L20.531 0.444514C20.251 0.157817 19.8768 -2.44959e-06 19.478 -2.37986e-06C19.0793 -2.31014e-06 18.7055 0.157817 18.4253 0.444515L6.30102 12.8317C6.01975 13.1189 5.86572 13.5026 5.86683 13.9105C5.86572 14.3202 6.01953 14.7034 6.30102 14.9908L18.414 27.366C18.6942 27.6527 19.068 27.8106 19.467 27.8106C19.8658 27.8106 20.2395 27.6527 20.5199 27.366L21.412 26.4549C21.9925 25.8618 21.9925 24.8963 21.412 24.3035L11.2404 13.9112Z" fill="black"/>
<rect x="4.86682" y="28" width="4.86685" height="27.8106" rx="2.43342" transform="rotate(180 4.86682 28)" fill="black"/>
</svg>
