<svg width="22" height="28" viewBox="0 0 22 28" fill="none" xmlns="http://www.w3.org/2000/svg">
<path d="M10.6175 13.9004L0.434642 24.3047C0.154257 24.5905 1.11959e-05 24.9726 1.12315e-05 25.38C1.12672e-05 25.7877 0.154257 26.1696 0.434643 26.4558L1.32692 27.367C1.60686 27.6537 1.98108 27.8115 2.37986 27.8115C2.77864 27.8115 3.15242 27.6537 3.43258 27.367L15.5569 14.9798C15.8382 14.6926 15.9922 14.3089 15.9911 13.901C15.9922 13.4913 15.8384 13.1081 15.5569 12.8207L3.44386 0.445476C3.1637 0.158776 2.78993 0.000956736 2.39092 0.000956771C1.99214 0.000956805 1.61837 0.158777 1.33798 0.445476L0.445927 1.35667C-0.134541 1.94973 -0.134541 2.91519 0.445927 3.50803L10.6175 13.9004Z" fill="black"/>
<rect x="16.9911" width="4.86685" height="27.8106" rx="2.43342" fill="black"/>
</svg>
