<svg width="86" height="86" viewBox="0 0 86 86" fill="none" xmlns="http://www.w3.org/2000/svg">
<path d="M21.735 53.7449C21.3113 54.605 21.0498 55.3949 20.9856 56.0898C21.3176 56.2282 22.3843 56.4219 23.9946 56.0898C26.0076 55.6748 29.1827 54.5334 31.9842 53.1223C34.7857 51.7111 37.359 50.5283 40.7416 49.5737C44.1242 48.6191 53.5456 45.7539 61.2861 46.6262C62.0153 45.6748 62.64 44.593 63.2161 43.2443C64.407 39.6715 61.5185 38.5934 60.6217 38.3729C60.5396 38.3567 60.4567 38.3411 60.3731 38.3261C60.124 38.243 56.7138 38.333 55.2265 38.4921C49.9763 39.0731 45.6391 41.1898 44.3939 41.6879C43.2422 42.1486 39.4965 44.0536 38.2513 44.6139C37.0062 45.1742 31.3616 48.3701 30.9673 48.6191C30.5731 48.8681 27.398 50.6528 26.8792 50.9848C26.3604 51.3169 24.555 52.313 23.7249 52.7695C23.0608 53.1347 22.1216 53.5719 21.735 53.7449Z" fill="#8CC763"/>
<path d="M48.8971 5.18499C50.2045 4.7077 53.4211 4.41717 55.8283 7.07343C56.5962 8.11104 56.7622 7.90352 57.53 7.98653C58.2978 8.06954 64.565 8.98263 64.9178 16.4326C66.0315 17.0967 68.1094 19.3628 67.5118 23.1148C66.5987 23.018 63.4195 23.3182 58.0073 25.2938C51.2421 27.7633 47.5483 30.046 39.704 35.7321C32.9634 40.6181 24.3229 48.492 21.735 53.7449C21.3113 54.605 21.0498 55.3949 20.9856 56.0899C20.0725 55.993 18.3044 55.1062 18.5368 52.3337C19.0349 48.9304 21.8157 44.5102 22.3552 43.7839C22.8948 43.0576 27.7874 36.5019 31.0919 33.4908C34.516 30.3708 35.016 29.7592 38.5211 25.2938C40.036 23.3638 43.1488 19.1927 43.5224 18.2588C44.2694 17.1382 47.1125 11.4729 47.569 9.7297C48.1708 7.98653 48.8971 5.41326 48.8971 5.18499Z" fill="#40A9DC"/>
<path d="M54.9568 52.0432C50.6818 55.0846 37.0477 62.0872 28.6846 62.0872C26.4032 62.1707 25.3435 62.2947 22.9985 60.6968C22.8671 61.3125 22.8823 62.7513 23.9946 63.5814C25.385 64.619 28.1036 65.4698 32.6068 65.4075C37.11 65.3453 40.9698 64.5152 43.1488 64.0172C45.3278 63.5191 53.8569 61.0496 57.115 59.3064C60.373 57.5633 59.0657 58.2896 64.4197 54.8447C69.7302 51.4279 70.6513 40.3549 60.6217 38.3729C61.5185 38.5934 64.407 39.6715 63.2161 43.2443C62.64 44.593 62.0153 45.6748 61.2861 46.6262C59.7827 48.588 57.8356 49.9951 54.9568 52.0432Z" fill="#40A9DC"/>
<path d="M10.313 82.6456C10.313 84.2472 8.87012 85.4064 6.68655 85.4064C5.52975 85.4127 4.38393 85.1819 3.31981 84.7282C3.20494 84.679 3.10641 84.5982 3.03573 84.4952C2.96505 84.3921 2.92512 84.2711 2.92061 84.1462C2.91801 84.0684 2.93118 83.9909 2.95932 83.9183C2.98746 83.8457 3.03 83.7796 3.08437 83.7239C3.13873 83.6682 3.20381 83.624 3.27568 83.5941C3.34755 83.5642 3.42473 83.5491 3.50257 83.5498C3.59545 83.5496 3.6873 83.5693 3.77191 83.6076C4.64843 84.0046 5.59924 84.2112 6.5615 84.2136C7.96591 84.2136 9.03846 83.8192 9.03846 82.5831C9.03846 80.4861 3.0168 81.65 3.0168 78.163C3.0168 76.5903 4.29135 75.2773 6.68655 75.2773C7.64705 75.27 8.60126 75.4328 9.50499 75.7582C9.62494 75.7948 9.72909 75.8706 9.80065 75.9736C9.8722 76.0765 9.90698 76.2006 9.89938 76.3258C9.9013 76.4022 9.88814 76.4783 9.86065 76.5496C9.83317 76.6209 9.79189 76.6862 9.73918 76.7416C9.68648 76.7969 9.62338 76.8414 9.55348 76.8724C9.48359 76.9034 9.40828 76.9203 9.33185 76.9222C9.25368 76.9164 9.17715 76.8969 9.10579 76.8645C8.37254 76.6109 7.60188 76.4825 6.82603 76.4845C5.38314 76.4845 4.30578 77.0376 4.30578 78.1005C4.30578 80.4909 10.313 78.923 10.313 82.6456Z" fill="#40A9DC"/>
<path d="M24.3524 84.0501L27.6806 75.7487C27.728 75.6236 27.8112 75.5154 27.9199 75.4375C28.0285 75.3596 28.1578 75.3156 28.2914 75.311C28.3772 75.3067 28.4629 75.3206 28.5428 75.352C28.6228 75.3833 28.6952 75.4312 28.7552 75.4926C28.8152 75.554 28.8615 75.6274 28.891 75.7081C28.9205 75.7887 28.9326 75.8747 28.9263 75.9603C28.9257 76.0423 28.911 76.1237 28.883 76.2008L25.3864 84.6946C25.323 84.8794 25.2048 85.0405 25.0476 85.1565C24.8904 85.2725 24.7016 85.3379 24.5063 85.3439H24.1936C23.9992 85.3369 23.8114 85.2711 23.6551 85.1552C23.4989 85.0393 23.3814 84.8787 23.3183 84.6946L19.8217 76.2104C19.7937 76.1333 19.779 76.052 19.7784 75.9699C19.7722 75.8843 19.7842 75.7983 19.8137 75.7177C19.8432 75.637 19.8895 75.5636 19.9495 75.5022C20.0095 75.4408 20.0819 75.3929 20.1619 75.3616C20.2418 75.3303 20.3275 75.3163 20.4133 75.3206C20.5469 75.3252 20.6762 75.3692 20.7848 75.4471C20.8935 75.525 20.9768 75.6333 21.0241 75.7583L24.3524 84.0501Z" fill="#40A9DC"/>
<path d="M46.7604 84.6946C46.7645 84.7796 46.7508 84.8647 46.7201 84.9441C46.6894 85.0236 46.6424 85.0958 46.5822 85.156C46.522 85.2163 46.4498 85.2633 46.3703 85.2939C46.2908 85.3246 46.2058 85.3384 46.1207 85.3342C45.9905 85.3372 45.8624 85.3007 45.7534 85.2294C45.6443 85.1581 45.5594 85.0555 45.5099 84.935L44.5912 82.7274H39.7816L38.863 84.935C38.8134 85.0555 38.7285 85.1581 38.6195 85.2294C38.5105 85.3007 38.3824 85.3372 38.2522 85.3342C38.1671 85.3384 38.082 85.3246 38.0026 85.2939C37.9231 85.2633 37.8509 85.2163 37.7907 85.156C37.7304 85.0958 37.6834 85.0236 37.6528 84.9441C37.6221 84.8647 37.6083 84.7796 37.6125 84.6946C37.6175 84.5961 37.642 84.4997 37.6846 84.4108L41.2966 75.8833C41.3589 75.7145 41.4707 75.5686 41.6176 75.4647C41.7644 75.3608 41.9393 75.3039 42.1191 75.3013H42.2586C42.4384 75.3039 42.6133 75.3608 42.7601 75.4647C42.9069 75.5686 43.0188 75.7145 43.081 75.8833L46.6882 84.4156C46.7302 84.503 46.7547 84.5978 46.7604 84.6946ZM44.0959 81.5491L42.172 76.9462L40.2482 81.5491H44.0959Z" fill="#40A9DC"/>
<path d="M64.7965 84.6945C64.7971 84.7787 64.781 84.8622 64.7491 84.9401C64.7172 85.018 64.6701 85.0888 64.6106 85.1483C64.551 85.2078 64.4803 85.2549 64.4024 85.2868C64.3245 85.3187 64.241 85.3349 64.1568 85.3342C64.0719 85.3384 63.9871 85.3247 63.9079 85.2939C63.8286 85.2632 63.7567 85.2162 63.6969 85.1558C63.637 85.0955 63.5905 85.0233 63.5603 84.9438C63.5302 84.8643 63.5171 84.7794 63.522 84.6945V84.2713C63.522 83.3382 63.4642 81.4096 61.3288 81.4096H58.3949V84.6945C58.3943 84.7792 58.377 84.8628 58.344 84.9408C58.311 85.0188 58.263 85.0895 58.2027 85.1489C58.1424 85.2083 58.071 85.2552 57.9926 85.287C57.9142 85.3188 57.8302 85.3348 57.7456 85.3342C57.6614 85.3349 57.5779 85.3187 57.5 85.2868C57.4221 85.2549 57.3514 85.2078 57.2918 85.1483C57.2323 85.0888 57.1852 85.018 57.1533 84.9401C57.1214 84.8622 57.1053 84.7787 57.1059 84.6945V76.0372C57.1059 75.8666 57.173 75.7029 57.2927 75.5814C57.4124 75.4599 57.5751 75.3904 57.7456 75.3879H61.045C63.7384 75.3879 64.8927 76.6336 64.8927 78.2737C64.9018 78.8442 64.7258 79.4023 64.3911 79.8644C64.0564 80.3266 63.5811 80.6679 63.0362 80.8372C64.6089 81.246 64.8061 83.2757 64.8061 84.0645L64.7965 84.6945ZM63.5941 78.3506C63.5941 77.3021 62.9737 76.5951 60.8767 76.5951H58.3757V80.1927H60.9392C62.5264 80.1975 63.5893 79.5578 63.5893 78.3554L63.5941 78.3506Z" fill="#40A9DC"/>
<path d="M83.9196 84.6945C83.9237 84.7791 83.9101 84.8637 83.8797 84.9429C83.8493 85.022 83.8027 85.0939 83.743 85.1541C83.6833 85.2143 83.6117 85.2614 83.5328 85.2924C83.4539 85.3234 83.3694 85.3376 83.2847 85.3342C83.1545 85.3371 83.0264 85.3006 82.9174 85.2293C82.8083 85.1581 82.7234 85.0554 82.6739 84.935L81.7552 82.7273H76.9456L76.027 84.9398C75.9774 85.0602 75.8925 85.1629 75.7835 85.2341C75.6745 85.3054 75.5464 85.3419 75.4162 85.339C75.3314 85.3424 75.247 85.3282 75.1681 85.2972C75.0892 85.2662 75.0176 85.2191 74.9579 85.1589C74.8981 85.0988 74.8516 85.0268 74.8212 84.9477C74.7908 84.8686 74.7772 84.784 74.7813 84.6993C74.7867 84.6009 74.8112 84.5045 74.8534 84.4155L78.4318 75.888C78.494 75.7193 78.6059 75.5733 78.7527 75.4694C78.8995 75.3655 79.0744 75.3086 79.2542 75.3061H79.3937C79.5736 75.3086 79.7484 75.3655 79.8952 75.4694C80.0421 75.5733 80.154 75.7193 80.2162 75.888L83.8282 84.4155C83.8765 84.5017 83.9075 84.5964 83.9196 84.6945ZM81.255 81.549L79.3312 76.9462L77.4073 81.549H81.255Z" fill="#40A9DC"/>
</svg>
