<svg width="86" height="86" viewBox="0 0 86 86" fill="none" xmlns="http://www.w3.org/2000/svg">
<rect x="9.11542" y="9.48108" width="67.627" height="67.627" rx="10" fill="white"/>
<path d="M21.2437 61.8987C20.82 62.7588 20.5585 63.5487 20.4943 64.2436C20.8263 64.382 21.893 64.5757 23.5033 64.2436C25.5163 63.8286 28.6913 62.6872 31.4929 61.2761C34.2944 59.865 36.8677 58.6821 40.2502 57.7275C43.6328 56.7729 53.0543 53.9077 60.7948 54.78C61.5239 53.8286 62.1487 52.7468 62.7248 51.3981C63.9157 47.8253 61.0272 46.7472 60.1304 46.5267C60.0482 46.5105 59.9653 46.4949 59.8817 46.4799C59.6327 46.3969 56.2224 46.4868 54.7352 46.6459C49.4849 47.2269 45.1477 49.3437 43.9026 49.8417C42.7509 50.3024 39.0051 52.2074 37.76 52.7677C36.5149 53.3281 30.8703 56.5239 30.476 56.7729C30.0817 57.0219 26.9067 58.8066 26.3879 59.1386C25.8691 59.4707 24.0636 60.4668 23.2335 60.9233C22.5695 61.2885 21.6303 61.7257 21.2437 61.8987Z" fill="#8CC763"/>
<path d="M48.4058 13.3388C49.7132 12.8615 52.9298 12.571 55.337 15.2272C56.1048 16.2649 56.2709 16.0573 57.0387 16.1403C57.8065 16.2233 64.0736 17.1364 64.4264 24.5864C65.5401 25.2505 67.6181 27.5166 67.0204 31.2686C66.1073 31.1718 62.9281 31.472 57.516 33.4476C50.7508 35.9171 47.0569 38.1998 39.2126 43.8859C32.4721 48.7719 23.8315 56.6458 21.2437 61.8987C20.82 62.7588 20.5585 63.5487 20.4943 64.2437C19.5812 64.1468 17.8131 63.26 18.0455 60.4875C18.5436 57.0842 21.3243 52.664 21.8639 51.9377C22.4034 51.2114 27.2961 44.6557 30.6005 41.6446C34.0247 38.5246 34.5247 37.913 38.0298 33.4476C39.5447 31.5176 42.6575 27.3465 43.031 26.4126C43.7781 25.292 46.6211 19.6267 47.0777 17.8835C47.6795 16.1403 48.4058 13.5671 48.4058 13.3388Z" fill="#40A9DC"/>
<path d="M54.4654 60.197C50.1905 63.2384 36.5564 70.241 28.1933 70.241C25.9119 70.3246 24.8522 70.4485 22.5072 68.8506C22.3758 69.4663 22.391 70.9051 23.5033 71.7352C24.8937 72.7728 27.6122 73.6236 32.1154 73.5614C36.6186 73.4991 40.4785 72.669 42.6575 72.171C44.8364 71.6729 53.3656 69.2034 56.6236 67.4602C59.8817 65.7171 58.5743 66.4434 63.9284 62.9985C69.2389 59.5817 70.16 48.5087 60.1304 46.5267C61.0272 46.7472 63.9157 47.8253 62.7248 51.3981C62.1487 52.7468 61.5239 53.8286 60.7948 54.78C59.2914 56.7418 57.3442 58.1489 54.4654 60.197Z" fill="#40A9DC"/>
<path d="M45.8866 68.2635C45.8866 62.7407 50.3637 58.2635 55.8866 58.2635H76.7424V67.108C76.7424 72.6309 72.2652 77.108 66.7424 77.108H45.8866V68.2635Z" fill="#FF0000"/>
<path d="M53.4669 71.6858H51.9532V65.8069H50.0147V64.5471H55.4053V65.8069H53.4669V71.6858ZM60.6153 71.6858H56.504V64.5471H60.6153V65.7874H58.0176V67.3547H60.4346V68.595H58.0176V70.4358H60.6153V71.6858ZM66.3233 69.7034C66.3233 70.3479 66.0906 70.8557 65.6251 71.2268C65.1628 71.5979 64.5183 71.7834 63.6915 71.7834C62.9297 71.7834 62.2559 71.6402 61.67 71.3538V69.9475C62.1518 70.1624 62.5587 70.3137 62.8907 70.4016C63.226 70.4895 63.532 70.5334 63.8087 70.5334C64.1407 70.5334 64.3946 70.47 64.5704 70.343C64.7494 70.2161 64.8389 70.0273 64.8389 69.7766C64.8389 69.6366 64.7999 69.5129 64.7217 69.4055C64.6436 69.2948 64.5281 69.189 64.3751 69.0881C64.2253 68.9872 63.9177 68.8261 63.4522 68.6047C63.016 68.3997 62.6889 68.2027 62.4708 68.0139C62.2527 67.8251 62.0785 67.6054 61.9483 67.3547C61.8181 67.1041 61.753 66.8111 61.753 66.4758C61.753 65.8443 61.9662 65.3479 62.3926 64.9866C62.8223 64.6252 63.4148 64.4446 64.17 64.4446C64.5411 64.4446 64.8943 64.4885 65.2296 64.5764C65.5681 64.6643 65.9213 64.788 66.2891 64.9475L65.8008 66.1243C65.42 65.968 65.1042 65.859 64.8536 65.7971C64.6062 65.7353 64.362 65.7043 64.1212 65.7043C63.8347 65.7043 63.615 65.7711 63.462 65.9045C63.309 66.038 63.2325 66.2122 63.2325 66.427C63.2325 66.5605 63.2634 66.6777 63.3253 66.7786C63.3871 66.8762 63.4848 66.9722 63.6182 67.0667C63.7549 67.1578 64.0756 67.3238 64.5801 67.5647C65.2475 67.8837 65.7048 68.2043 65.9522 68.5266C66.1996 68.8456 66.3233 69.2379 66.3233 69.7034ZM70.3712 71.6858H68.8575V65.8069H66.919V64.5471H72.3096V65.8069H70.3712V71.6858Z" fill="white"/>
</svg>
