<svg width="86" height="86" viewBox="0 0 86 86" fill="none" xmlns="http://www.w3.org/2000/svg">
<path d="M21.3148 53.354C20.891 54.2142 20.6296 55.004 20.5653 55.699C20.8974 55.8373 21.964 56.031 23.5744 55.699C25.5873 55.2839 28.7624 54.1426 31.5639 52.7314C34.3655 51.3203 36.9387 50.1374 40.3213 49.1828C43.7039 48.2282 53.1254 45.3631 60.8659 46.2354C61.595 45.284 62.2198 44.2021 62.7958 42.8534C63.9868 39.2806 61.0982 38.2026 60.2014 37.9821C60.1193 37.9658 60.0364 37.9502 59.9528 37.9352C59.7038 37.8522 56.2935 37.9421 54.8063 38.1012C49.556 38.6823 45.2188 40.799 43.9737 41.297C42.822 41.7577 39.0762 43.6628 37.8311 44.2231C36.5859 44.7834 30.9414 47.9792 30.5471 48.2282C30.1528 48.4773 26.9777 50.2619 26.4589 50.594C25.9401 50.926 24.1347 51.9221 23.3046 52.3786C22.6405 52.7439 21.7014 53.1811 21.3148 53.354Z" fill="#8CC763"/>
<path d="M48.4769 4.79412C49.7843 4.31683 53.0008 4.0263 55.4081 6.68256C56.1759 7.72017 56.3419 7.51265 57.1097 7.59566C57.8776 7.67867 64.1447 8.59176 64.4975 16.0418C65.6112 16.7058 67.6892 18.972 67.0915 22.7239C66.1784 22.6271 62.9992 22.9273 57.587 24.9029C50.8219 27.3724 47.128 29.6551 39.2837 35.3412C32.5432 40.2272 23.9026 48.1012 21.3148 53.354C20.891 54.2142 20.6296 55.004 20.5653 55.699C19.6522 55.6021 17.8842 54.7153 18.1166 51.9429C18.6146 48.5395 21.3954 44.1193 21.935 43.393C22.4745 42.6667 27.3671 36.111 30.6716 33.1C34.0957 29.9799 34.5957 29.3683 38.1008 24.9029C39.6157 22.973 42.7285 18.8018 43.1021 17.8679C43.8492 16.7473 46.6922 11.082 47.1487 9.33884C47.7506 7.59566 48.4769 5.02239 48.4769 4.79412Z" fill="#40A9DC"/>
<path d="M54.5365 51.6523C50.2616 54.6937 36.6274 61.6963 28.2643 61.6963C25.9829 61.7799 24.9233 61.9039 22.5783 60.306C22.4468 60.9216 22.4621 62.3604 23.5744 63.1905C24.9648 64.2281 27.6833 65.0789 32.1865 65.0167C36.6897 64.9544 40.5496 64.1243 42.7285 63.6263C44.9075 63.1282 53.4366 60.6587 56.6947 58.9156C59.9528 57.1724 58.6454 57.8987 63.9994 54.4539C69.31 51.037 70.231 39.964 60.2014 37.9821C61.0982 38.2026 63.9868 39.2806 62.7958 42.8535C62.2197 44.2021 61.595 45.284 60.8659 46.2354C59.3624 48.1971 57.4153 49.6042 54.5365 51.6523Z" fill="#40A9DC"/>
<path d="M9.89273 82.2548C9.89273 83.8564 8.44984 85.0155 6.26627 85.0155C5.10947 85.0219 3.96365 84.7911 2.89953 84.3373C2.78465 84.2882 2.68613 84.2073 2.61545 84.1043C2.54477 84.0012 2.50484 83.8802 2.50033 83.7554C2.49773 83.6776 2.5109 83.6 2.53904 83.5275C2.56718 83.4549 2.60972 83.3887 2.66409 83.333C2.71845 83.2773 2.78353 83.2332 2.8554 83.2032C2.92727 83.1733 3.00445 83.1583 3.08229 83.159C3.17517 83.1587 3.26701 83.1784 3.35163 83.2167C4.22815 83.6138 5.17896 83.8203 6.14122 83.8227C7.54563 83.8227 8.61818 83.4283 8.61818 82.1922C8.61818 80.0952 2.59652 81.2592 2.59652 77.7722C2.59652 76.1994 3.87107 74.8864 6.26627 74.8864C7.22677 74.8791 8.18098 75.042 9.08471 75.3674C9.20466 75.4039 9.30881 75.4797 9.38036 75.5827C9.45192 75.6857 9.4867 75.8097 9.4791 75.9349C9.48102 76.0113 9.46786 76.0874 9.44037 76.1587C9.41289 76.2301 9.37161 76.2953 9.3189 76.3507C9.2662 76.4061 9.2031 76.4505 9.1332 76.4815C9.06331 76.5125 8.988 76.5294 8.91157 76.5313C8.8334 76.5256 8.75686 76.506 8.68551 76.4736C7.95226 76.22 7.18159 76.0916 6.40575 76.0936C4.96286 76.0936 3.8855 76.6467 3.8855 77.7097C3.8855 80.1 9.89273 78.5321 9.89273 82.2548Z" fill="#40A9DC"/>
<path d="M23.932 83.6592L27.2603 75.3578C27.3076 75.2328 27.3909 75.1245 27.4996 75.0466C27.6082 74.9688 27.7375 74.9248 27.8711 74.9201C27.9569 74.9158 28.0426 74.9298 28.1225 74.9611C28.2025 74.9924 28.2749 75.0403 28.3349 75.1017C28.3949 75.1631 28.4412 75.2365 28.4707 75.3172C28.5002 75.3978 28.5122 75.4838 28.506 75.5694C28.5054 75.6515 28.4907 75.7328 28.4627 75.8099L24.9661 84.3037C24.9027 84.4885 24.7845 84.6497 24.6273 84.7656C24.4701 84.8816 24.2812 84.947 24.086 84.953H23.7733C23.5789 84.946 23.3911 84.8802 23.2348 84.7643C23.0785 84.6484 22.9611 84.4878 22.898 84.3037L19.4014 75.8195C19.3734 75.7424 19.3587 75.6611 19.3581 75.5791C19.3518 75.4934 19.3639 75.4074 19.3934 75.3268C19.4229 75.2462 19.4692 75.1727 19.5292 75.1113C19.5892 75.0499 19.6616 75.002 19.7416 74.9707C19.8215 74.9394 19.9072 74.9254 19.993 74.9298C20.1266 74.9344 20.2559 74.9784 20.3645 75.0563C20.4732 75.1341 20.5565 75.2424 20.6038 75.3674L23.932 83.6592Z" fill="#40A9DC"/>
<path d="M46.3401 84.3037C46.3442 84.3888 46.3305 84.4738 46.2998 84.5533C46.2691 84.6327 46.2221 84.7049 46.1619 84.7652C46.1017 84.8254 46.0295 84.8724 45.95 84.9031C45.8705 84.9338 45.7855 84.9475 45.7004 84.9434C45.5702 84.9463 45.4421 84.9098 45.3331 84.8385C45.224 84.7673 45.1391 84.6646 45.0896 84.5442L44.1709 82.3365H39.3613L38.4427 84.5442C38.3931 84.6646 38.3082 84.7673 38.1992 84.8385C38.0902 84.9098 37.9621 84.9463 37.8319 84.9434C37.7468 84.9475 37.6617 84.9338 37.5823 84.9031C37.5028 84.8724 37.4306 84.8254 37.3704 84.7652C37.3101 84.7049 37.2632 84.6327 37.2325 84.5533C37.2018 84.4738 37.1881 84.3888 37.1922 84.3037C37.1972 84.2053 37.2218 84.1088 37.2643 84.0199L40.8764 75.4924C40.9386 75.3237 41.0504 75.1777 41.1973 75.0738C41.3441 74.9699 41.519 74.913 41.6988 74.9105H41.8383C42.0181 74.913 42.193 74.9699 42.3398 75.0738C42.4866 75.1777 42.5985 75.3237 42.6607 75.4924L46.2679 84.0247C46.3099 84.1121 46.3344 84.2069 46.3401 84.3037ZM43.6756 81.1582L41.7517 76.5554L39.8279 81.1582H43.6756Z" fill="#40A9DC"/>
<path d="M64.3762 84.3037C64.3769 84.3878 64.3607 84.4713 64.3288 84.5492C64.2969 84.6271 64.2498 84.6979 64.1903 84.7574C64.1308 84.8169 64.06 84.864 63.9821 84.896C63.9042 84.9279 63.8207 84.944 63.7365 84.9433C63.6516 84.9475 63.5668 84.9338 63.4876 84.9031C63.4083 84.8723 63.3364 84.8253 63.2766 84.765C63.2167 84.7046 63.1702 84.6324 63.14 84.5529C63.1099 84.4734 63.0968 84.3885 63.1017 84.3037V83.8804C63.1017 82.9473 63.0439 81.0187 60.9085 81.0187H57.9746V84.3037C57.974 84.3883 57.9567 84.472 57.9237 84.5499C57.8907 84.6279 57.8427 84.6986 57.7824 84.758C57.7221 84.8174 57.6507 84.8643 57.5723 84.8961C57.4939 84.9279 57.4099 84.944 57.3253 84.9433C57.2411 84.944 57.1576 84.9279 57.0797 84.896C57.0018 84.864 56.9311 84.8169 56.8715 84.7574C56.812 84.6979 56.7649 84.6271 56.733 84.5492C56.7011 84.4713 56.685 84.3878 56.6856 84.3037V75.6463C56.6856 75.4758 56.7527 75.3121 56.8724 75.1906C56.9921 75.0691 57.1548 74.9996 57.3253 74.997H60.6247C63.3181 74.997 64.4724 76.2427 64.4724 77.8828C64.4815 78.4533 64.3055 79.0114 63.9708 79.4736C63.6362 79.9357 63.1608 80.277 62.6159 80.4463C64.1886 80.8552 64.3858 82.8848 64.3858 83.6736L64.3762 84.3037ZM63.1738 77.9598C63.1738 76.9113 62.5534 76.2042 60.4564 76.2042H57.9554V79.8018H60.5189C62.1061 79.8067 63.169 79.167 63.169 77.9646L63.1738 77.9598Z" fill="#40A9DC"/>
<path d="M83.4993 84.3036C83.5034 84.3883 83.4898 84.4729 83.4594 84.552C83.429 84.6311 83.3824 84.7031 83.3227 84.7632C83.263 84.8234 83.1914 84.8705 83.1125 84.9015C83.0336 84.9325 82.9491 84.9467 82.8644 84.9433C82.7342 84.9463 82.6061 84.9097 82.4971 84.8385C82.388 84.7672 82.3031 84.6646 82.2536 84.5441L81.335 82.3365H76.5253L75.6067 84.5489C75.5571 84.6694 75.4722 84.772 75.3632 84.8433C75.2542 84.9145 75.1261 84.9511 74.9959 84.9481C74.9112 84.9515 74.8267 84.9373 74.7478 84.9063C74.6689 84.8753 74.5973 84.8282 74.5376 84.7681C74.4778 84.7079 74.4313 84.636 74.4009 84.5568C74.3705 84.4777 74.3569 84.3931 74.361 84.3084C74.3664 84.21 74.3909 84.1137 74.4331 84.0246L78.0115 75.4972C78.0737 75.3284 78.1856 75.1825 78.3324 75.0786C78.4792 74.9747 78.6541 74.9177 78.8339 74.9152H78.9734C79.1533 74.9177 79.3281 74.9747 79.4749 75.0786C79.6218 75.1825 79.7337 75.3284 79.7959 75.4972L83.4079 84.0246C83.4562 84.1108 83.4872 84.2056 83.4993 84.3036ZM80.8347 81.1581L78.9109 76.5553L76.987 81.1581H80.8347Z" fill="#40A9DC"/>
</svg>
