<svg width="20" height="11" viewBox="0 0 20 11" fill="none" xmlns="http://www.w3.org/2000/svg">
<path d="M10.4243 7.3036L3.31614 0.298975C3.12089 0.106102 2.85983 0 2.58148 0C2.30296 0 2.04206 0.106102 1.8465 0.298975L1.22398 0.912758C1.02811 1.10533 0.920288 1.36275 0.920288 1.63706C0.920288 1.91138 1.02811 2.16849 1.22398 2.36121L9.68686 10.7013C9.88304 10.8948 10.1452 11.0008 10.4238 11C10.7037 11.0008 10.9656 10.895 11.1619 10.7013L19.6166 2.36897C19.8125 2.17625 19.9203 1.91914 19.9203 1.64467C19.9203 1.37036 19.8125 1.11324 19.6166 0.92037L18.9941 0.30674C18.5889 -0.092555 17.9293 -0.092555 17.5243 0.30674L10.4243 7.3036Z" fill="black"/>
</svg>
