<svg width="19" height="11" viewBox="0 0 19 11" fill="none" xmlns="http://www.w3.org/2000/svg">
<path d="M9.50402 7.3036L2.39585 0.298975C2.2006 0.106102 1.93954 0 1.66119 0C1.38267 0 1.12177 0.106102 0.926211 0.298975L0.303691 0.912758C0.107821 1.10533 0 1.36275 0 1.63706C0 1.91138 0.107821 2.16849 0.303691 2.36121L8.76657 10.7013C8.96275 10.8948 9.22489 11.0008 9.50355 11C9.78345 11.0008 10.0453 10.895 10.2416 10.7013L18.6963 2.36897C18.8922 2.17625 19 1.91914 19 1.64467C19 1.37036 18.8922 1.11324 18.6963 0.92037L18.0738 0.30674C17.6686 -0.092555 17.009 -0.092555 16.604 0.30674L9.50402 7.3036Z" fill="black"/>
</svg>
